<?xml version="1.0" encoding="utf-8"?>
<!-- Generator: Adobe Illustrator 16.0.0, SVG Export Plug-In . SVG Version: 6.00 Build 0)  -->
<!DOCTYPE svg PUBLIC "-//W3C//DTD SVG 1.1//EN" "http://www.w3.org/Graphics/SVG/1.1/DTD/svg11.dtd">
<svg version="1.1" id="logo" xmlns="http://www.w3.org/2000/svg" xmlns:xlink="http://www.w3.org/1999/xlink" x="0px" y="0px"
	 width="81px" height="81px" viewBox="0 0 81 81" enable-background="new 0 0 81 81" xml:space="preserve">
<path fill="#1ABC9C" d="M81,65.247C81,73.947,73.947,81,65.247,81H15.753C7.053,81,0,73.947,0,65.247V15.753
	C0,7.053,7.053,0,15.753,0h49.493C73.947,0,81,7.053,81,15.753V65.247z"/>
<g>
	<path fill="#FFFFFF" d="M46.717,62.392c-1.208,1.687-2.683,2.962-4.426,3.828s-3.766,1.299-6.067,1.299
		c-4.512,0-8.038-1.635-10.579-4.905c-2.541-3.27-3.811-7.571-3.811-12.903v-0.718c0-5.947,1.27-10.744,3.811-14.39
		c2.541-3.646,6.089-5.469,10.647-5.469c2.188,0,4.119,0.405,5.793,1.213c1.675,0.809,3.104,1.977,4.29,3.503V27.05h-8.579v-5.298
		h8.579v-2.974l-5.571-0.957v-4.341h12.305v8.271h6.597v5.298h-6.597v34.487l5.571,0.957v4.307H47.264L46.717,62.392z
		 M28.567,49.711c0,3.714,0.763,6.699,2.29,8.955c1.526,2.256,3.885,3.384,7.075,3.384c2.005,0,3.691-0.456,5.059-1.367
		c1.367-0.911,2.495-2.199,3.384-3.862V39.663c-0.866-1.549-1.994-2.78-3.384-3.691c-1.39-0.911-3.054-1.367-4.99-1.367
		c-3.213,0-5.588,1.333-7.126,3.999s-2.307,6.13-2.307,10.391V49.711z"/>
</g>
</svg>
